<?xml version="1.0" encoding="utf-8"?>
<!-- Generator: Adobe Illustrator 28.0.0, SVG Export Plug-In . SVG Version: 6.00 Build 0)  -->
<svg version="1.1" id="Слой_1" xmlns="http://www.w3.org/2000/svg" xmlns:xlink="http://www.w3.org/1999/xlink" x="0px" y="0px"
	 viewBox="0 0 512 512" style="enable-background:new 0 0 512 512;" xml:space="preserve">
<style type="text/css">
	.st0{fill:#FFFFFF;}
</style>
<g>
	<path class="st0" d="M148.2,512c-10.8,0-20.9-4.2-28.6-11.8c-7.6-7.6-11.8-17.8-11.8-28.6s4.2-20.9,11.8-28.6l187-187l-187-187
		c-7.6-7.6-11.8-17.8-11.8-28.6s4.2-20.9,11.8-28.6S137.4,0,148.2,0s20.9,4.2,28.6,11.8l215.6,215.6c7.6,7.6,11.8,17.8,11.8,28.6
		s-4.2,20.9-11.8,28.6L176.8,500.2C169.1,507.8,159,512,148.2,512L148.2,512z"/>
</g>
</svg>
