<?xml version="1.0" encoding="utf-8"?>
<!-- Generator: Adobe Illustrator 28.0.0, SVG Export Plug-In . SVG Version: 6.00 Build 0)  -->
<svg version="1.1" id="Layer_1" xmlns="http://www.w3.org/2000/svg" xmlns:xlink="http://www.w3.org/1999/xlink" x="0px" y="0px"
	 viewBox="0 0 163.6 162.1" style="enable-background:new 0 0 163.6 162.1;" xml:space="preserve">
<style type="text/css">
	.st0{fill:#EF7406;}
	.st1{fill:#142156;}
</style>
<g id="A2n1cK.tif">
	<g>
		<g>
			<g>
				<g>
					<path class="st0" d="M0,152.4c0.9-4,1.8-8.1,2.5-12.2c1.1-6.7,3.7-12.5,8.9-17c3.5-3,7.6-4.8,11.9-6.2c0.5-0.1,0.9-0.3,1.6-0.5
						c-5.1-4.3-7.5-9.6-7-16.1c0.4-4.8,2.6-8.9,6.3-12c7.4-6.2,18.4-5.4,24.8,1.7c6.2,6.9,6.8,18.5-2.4,26.3c1,0.3,1.8,0.6,2.7,0.9
						c10.9,3.7,17.7,10.9,19.6,22.5c0.7,4.1,1.6,8.2,2.4,12.4c0.4,2-0.1,2.9-2,3.7c-13.2,5-26.9,6.9-41,5.8
						c-8.8-0.7-17.2-2.6-25.5-5.6c-1-0.4-1.9-1.2-2.9-1.8C0,153.7,0,153.1,0,152.4z M5.5,151.7c20.3,7,40.4,7,60.6,0
						c-0.9-4.3-1.7-8.4-2.5-12.4c-1.3-6.8-4.9-11.9-11.2-15c-10.2-5-20.5-5.4-31-1.1c-6.7,2.7-11.3,7.3-13.1,14.4
						C7.2,142.2,6.5,146.9,5.5,151.7z M48.6,102.4c0.1-7.1-5.6-12.9-12.7-12.9c-7-0.1-12.8,5.6-12.9,12.5c-0.1,7.2,5.6,13,12.7,13
						C42.7,115.1,48.5,109.4,48.6,102.4z"/>
				</g>
			</g>
			<path class="st1" d="M108.3,0c2.9,0.4,5.8,0.7,8.7,1.3c9.3,1.8,18,5.2,25.1,11.7c4.3,3.8,7.4,8.4,8.4,14.2
				c1.3,7.3-1.2,13.5-6,18.9c-5.9,6.6-13.5,10.5-21.9,12.6c-3.1,0.8-4.4,2-4.9,5.2c-0.6,4.3-1.7,8.4-2.6,12.6
				c-0.3,1.4-0.8,2.5-2.3,2.7c-1.5,0.3-2.3-0.7-3-1.9c-3.1-4.9-6.2-9.7-9.2-14.5c-0.8-1.2-1.6-1.7-3-1.8
				c-10.3-0.8-20.1-3.6-28.7-9.5c-5-3.5-9.1-7.7-11.2-13.5c-3.3-9.1-0.6-16.8,5.9-23.5c6.1-6.4,13.8-10,22.3-12.1
				c3.8-1,7.8-1.4,11.8-2c0.4-0.1,0.8-0.2,1.2-0.3C101.9,0,105.1,0,108.3,0z M111.3,70c0.9-4.3,1.8-8,2.5-11.8
				c0.4-1.9,1.2-3,3.2-3.4c2.3-0.4,4.7-1.1,6.9-1.9c6.6-2.2,12.6-5.4,17.2-10.8c6.1-7.2,6.2-15.7,0.1-22.9c-2.9-3.5-6.4-6.1-10.4-8
				C114,3.3,96.9,3.1,79.7,9.6c-5.9,2.2-11.1,5.7-14.9,10.9c-4.6,6.4-4.6,13.7,0,20.2c2.8,4,6.7,6.8,10.9,9.1
				c7.6,4,15.8,5.8,24.4,6.2c1.8,0.1,2.8,0.8,3.7,2.2C106.1,62.1,108.6,65.8,111.3,70z"/>
			<path class="st1" d="M116.9,116.5c-4.9-4.1-7.4-9.3-7-15.6c0.3-4.7,2.3-8.7,5.8-11.9c7.1-6.5,18.1-6.1,24.8,0.7
				c6.4,6.5,7.8,18.6-1.8,26.8c1.7,0.6,3.4,1.2,5,1.8c9.8,4,15.5,11.2,17.2,21.6c0.7,4.1,1.6,8.2,2.4,12.4c0.4,1.9-0.1,2.9-2,3.6
				c-13.2,5-26.9,6.9-41,5.9c-9-0.7-17.7-2.6-26.1-5.8c-2.2-0.8-2.6-1.6-2.1-3.9c0.9-4.6,1.8-9.2,2.7-13.8
				c2-10.3,8.3-16.8,17.9-20.4C114.2,117.4,115.5,117,116.9,116.5z M158.1,151.8c-0.9-4.3-1.7-8.3-2.5-12.4c-1.3-7-5-12.1-11.4-15.2
				c-10.1-4.9-20.3-5.2-30.7-1c-6.2,2.5-10.9,6.7-12.7,13.2c-1.4,5-2.2,10.2-3.3,15.4C117.7,158.7,137.8,158.7,158.1,151.8z
				 M140.6,102.3c0-7.1-5.7-12.8-12.7-12.9c-7,0-12.8,5.7-12.8,12.6c-0.1,7.2,5.7,12.9,12.8,13C134.8,115,140.6,109.3,140.6,102.3z"
				/>
			<g>
				<path class="st0" d="M55,73.8c4-2.5,7.5-4.9,11.2-7.1c0.9-0.6,2.2-0.9,3.3-0.8c8,1,15.9,0.6,23.8-1.2c0.7-0.2,1.6-0.4,2-0.1
					c0.8,0.6,1.6,1.4,1.8,2.3c0.3,1.4-0.7,2.3-2.1,2.6c-3.4,0.6-6.9,1.5-10.4,1.7c-5,0.2-10-0.1-15-0.1c-0.6,0-1.3,0.3-1.9,0.6
					c-4.9,3.1-9.7,6.1-14.5,9.2c-1.1,0.7-2.3,1.3-3.5,0.4c-1.2-0.9-1.2-2.1-0.9-3.4c0.9-3.8,1.7-7.7,2.5-11.2
					c-3.3-2.1-6.7-3.9-9.7-6.1c-4.9-3.6-8.6-8.2-10.2-14.3c-2-7.9,0.3-14.7,5.6-20.7c4.2-4.8,9.6-8.1,15.4-10.5
					c1.6-0.7,3-0.2,3.6,1.2c0.6,1.4,0,2.8-1.6,3.5c-4.4,1.9-8.5,4.2-12,7.5c-3.8,3.6-6.4,7.8-6.6,13.2c-0.2,5.9,2.6,10.4,6.8,14.2
					c3.4,3.2,7.3,5.4,11.6,7.2c2.7,1.2,3,1.7,2.4,4.6C56.1,68.8,55.6,71.1,55,73.8z"/>
			</g>
			<path class="st1" d="M79.3,33.1c0-1.7,0-3.3,0-4.9c10.2,0,20.3,0,30.5,0c0,1.6,0,3.2,0,4.9C99.7,33.1,89.6,33.1,79.3,33.1z"/>
			<path class="st1" d="M94.7,43.3c0-1.7,0-3.3,0-4.9c9.3,0,18.6,0,27.9,0c0,1.6,0,3.2,0,4.9C113.3,43.3,104.1,43.3,94.7,43.3z"/>
			<path class="st1" d="M99.6,18c0,1.7,0,3.3,0,4.9c-4.2,0-8.3,0-12.6,0c0-1.6,0-3.2,0-4.9C91.2,18,95.3,18,99.6,18z"/>
			<path class="st1" d="M127.7,22.9c-4.3,0-8.4,0-12.6,0c0-1.6,0-3.2,0-4.9c4.2,0,8.3,0,12.6,0C127.7,19.6,127.7,21.2,127.7,22.9z"
				/>
			<path class="st1" d="M127.7,28.2c0,1.7,0,3.2,0,4.9c-4.2,0-8.3,0-12.6,0c0-1.6,0-3.2,0-4.9C119.3,28.2,123.4,28.2,127.7,28.2z"/>
			<path class="st1" d="M79.3,43.4c0-1.7,0-3.2,0-4.9c3.3,0,6.6,0,10.1,0c0,1.6,0,3.2,0,4.9C86.1,43.4,82.8,43.4,79.3,43.4z"/>
			<path class="st1" d="M104.9,17.9c1.7,0,3.2,0,4.9,0c0,1.6,0,3.3,0,5c-1.6,0-3.2,0-4.9,0C104.9,21.2,104.9,19.6,104.9,17.9z"/>
		</g>
	</g>
</g>
</svg>
