<?xml version="1.0" encoding="utf-8"?>
<!-- Generator: Adobe Illustrator 28.0.0, SVG Export Plug-In . SVG Version: 6.00 Build 0)  -->
<svg version="1.1" id="Layer_1" xmlns="http://www.w3.org/2000/svg" xmlns:xlink="http://www.w3.org/1999/xlink" x="0px" y="0px"
	 viewBox="0 0 163.6 162.1" style="enable-background:new 0 0 163.6 162.1;" xml:space="preserve">
<style type="text/css">
	.st0{fill:#142156;}
	.st1{fill:#EF7406;}
</style>
<g id="lO0tnT.tif">
	<g>
		<path class="st0" d="M139.9,162c-31.8,0-63.7,0-95.5,0c-1.2-0.4-2.4-0.7-3.6-1.2c-5.6-2.7-8.1-7.2-8-13.3c0-32.7,0-65.4,0-98.2
			c0-6.3,0-12.5,0-18.8c0-4.8,1.7-8.7,5.6-11.6c2.5-1.8,5.3-2.6,8.3-2.6c3.4,0,6.8,0,10.3,0c0-0.5,0.1-0.9,0.1-1.2
			c0.1-3.5,0.7-4.1,4.2-4.1c7.2,0,14.3,0,21.5,0c0.6,0,1.1,0,1.7,0c-0.9-3.8-0.1-6.9,2.9-9.2c2.8-2,5.8-2.2,8.8-0.5
			c3.6,2.2,4.7,5.5,3.7,9.7c0.7,0,1.2,0,1.8,0c7.4,0,14.8,0,22.1,0c2.5,0,3.4,0.9,3.4,3.5c0,0.6,0,1.2,0,1.9c2.3,0,4.4-0.1,6.5,0
			c2.5,0.1,5-0.1,7.4,0.4c6.4,1.4,10.4,6.9,10.4,13.8c0,39,0,78.1,0,117.1c0,0.5,0,1,0,1.4c-0.4,5.1-2.7,8.9-7.2,11.3
			C142.9,161.2,141.4,161.5,139.9,162z M49,89.2c0,17.5,0,35,0,52.5c0,3.5,0.7,4.2,4.1,4.2c26,0,52,0,77.9,0c3.6,0,4.3-0.7,4.3-4.2
			c0-35,0-70,0-105c0-0.4,0-0.8,0-1.3c-0.1-1.8-1.1-2.8-2.9-2.9c-1.6-0.1-3.2-0.1-4.7,0c-0.4,0-1,0.3-1.2,0.7
			c-1.8,3.4-4.7,4.7-8.4,4.7c-17.3,0-34.6,0-51.8,0c-0.5,0-1.1,0-1.6,0c-2.4-0.2-4.6-1.1-5.7-3.2c-1.1-2.2-2.7-2.4-4.7-2.2
			c-0.4,0-0.7,0-1.1,0c-3.4,0-4.1,0.7-4.1,4.1C49,54.1,49,71.7,49,89.2z M127.3,27.1c1.6,0,3.2,0,4.8,0c5.2,0.1,8.6,3.4,8.6,8.6
			c0,35.6,0,71.2,0,106.9c0,5.3-3.4,8.7-8.7,8.7c-26.6,0-53.1,0-79.7,0c-5.3,0-8.7-3.3-8.7-8.7c0-35.6,0-71.2,0-106.9
			c0-5.3,3.4-8.6,8.8-8.6c1.5,0,3,0,4.6,0c0-1.9,0-3.6,0-5.4c-3.3,0-6.4,0-9.6,0c-5.9,0-9.2,3.2-9.2,9.2c0,38.8,0,77.7,0,116.5
			c0,6.1,3.2,9.2,9.3,9.2c29.7,0,59.4,0,89.1,0c6.4,0,9.5-3.1,9.5-9.5c0-38.7,0-77.3,0-116c0-0.4,0-0.7,0-1.1
			c-0.1-4.8-3.5-8.2-8.3-8.3c-2.6-0.1-5.2,0-7.7,0c-0.9,0-1.9,0-2.8,0C127.3,23.6,127.3,25.3,127.3,27.1z M62.5,16.4
			c0,4.1,0,8.1,0,12c0,3.3,0.7,4.1,4.1,4.1c17.1,0,34.1,0,51.2,0c0.6,0,1.2,0,1.7-0.1c1.3-0.2,2.2-1,2.3-2.3c0.1-4.6,0-9.1,0-13.8
			C102,16.4,82.3,16.4,62.5,16.4z M94.9,8.1c0-1.5-1.3-2.7-2.8-2.6c-1.5,0.1-2.6,1.3-2.5,2.8c0.1,1.5,1.2,2.5,2.7,2.5
			C93.7,10.9,94.9,9.6,94.9,8.1z"/>
		<path class="st0" d="M11.2,47.2c0.2-0.5,0.4-1,0.6-1.6c1.4-3.4,5-5.5,8.6-5c3.8,0.6,6.7,3.7,6.9,7.5c0,0.7,0,1.4,0,2.1
			c0,27.7,0,55.4,0,83.1c0,1.4-0.3,2.9-0.8,4.3c-1.4,3.8-3,7.5-4.5,11.3c-0.5,1.3-1.2,2.3-2.7,2.3c-1.5,0-2.3-1-2.8-2.3
			c-1.8-4.4-3.6-8.7-5.4-13.1C11.2,106.3,11.2,76.8,11.2,47.2z M21.9,129.6c0-24.3,0-48.5,0-72.7c-1.8,0-3.5,0-5.2,0
			c0,24.3,0,48.4,0,72.7C18.5,129.6,20.1,129.6,21.9,129.6z M22,51.3c-0.1-1.9,0.7-3.9-1.4-4.9c-0.7-0.4-2-0.3-2.7,0.1
			c-1.8,1.1-1.2,3-1.2,4.7C18.5,51.3,20.1,51.3,22,51.3z M19.3,141.2c0.9-2.2,1.6-4.1,2.4-6.1c-1.7,0-3.2,0-4.9,0
			C17.7,137.2,18.5,139,19.3,141.2z"/>
		<path class="st1" d="M92.1,130.4c-0.6,0.8-1,1.3-1.4,1.8c-1.7,2.4-4,3.2-6.9,2.8c-1.5-0.2-3.1,0-4.6,0c-1.7,0-2.8-0.7-3.3-2.4
			c-0.5-1.7-1.1-3.4-1.7-5.1c-0.2-0.6-0.9-1.2-1.4-1.3c-2.5-0.7-5-1.3-7.5-1.9c-2.1-0.5-3-1.4-2.8-3.5c0.3-2.7-0.6-4.6-2.7-6.3
			c-1.5-1.2-2.9-2.6-4.1-4.1c-0.7-0.8-1.2-2-1.3-3c-0.1-4.1-0.1-8.1,0-12.2c0-0.9,0.3-2.1,0.9-2.8c3.9-4.4,5.3-9.4,4.5-15.1
			c-0.3-2,0.5-3.5,2-4.8c1.3-1.1,2.4-2.6,3.7-3.6c0.8-0.7,2-1.1,3.1-1.3c1.4-0.2,2.9,0,4.4-0.1c0.5,0,1.1-0.5,1.3-0.9
			c0.6-1.6,1.1-3.2,1.6-4.8c0.5-1.6,1.5-2.3,3.1-2.3c2.3,0,4.5,0.1,6.8,0c1.4-0.1,2.6,0.4,3.5,1.5c0.8,1,1.7,1.9,2.7,3
			c1.2-1.3,2.2-2.4,3.3-3.3c0.7-0.6,1.6-1,2.5-1.1c2.5-0.1,5.1,0,7.6-0.1c1.5,0,2.5,0.7,2.9,2.2c0.5,1.6,1.1,3.1,1.5,4.6
			c0.3,1,0.8,1.4,1.8,1.2c4.3-0.8,7.5,1,10.3,4.2c1.8,2,3,3.8,2.6,6.5c-0.8,5.1,0.6,9.6,4.1,13.5c1.1,1.2,1.4,2.7,1.3,4.4
			c-0.1,3.7,0.1,7.4-0.1,11.1c0,1.1-0.6,2.4-1.3,3.2c-1.8,2.1-3.9,3.9-5.7,5.9c-0.5,0.6-1,1.5-1,2.3c0,4.7,0.2,5.1-4.8,6.2
			c-1.8,0.4-3.7,0.9-5.5,1.4c-0.6,0.2-1.2,0.8-1.4,1.3c-0.7,1.6-1.2,3.4-1.7,5.1c-0.5,1.6-1.5,2.4-3.1,2.4c-2.4,0-4.9,0.1-7.3-0.1
			c-0.9-0.1-1.9-0.6-2.6-1.1C94.3,133,93.4,131.8,92.1,130.4z M83.9,116.2c0.4,3.4,0.3,3.6-2.3,6.3c-2.6,2.6-2.6,2.6-1.3,6.1
			c0,0,0,0.1,0.1,0.1c0.4,0.3,0.9,0.8,1.3,0.9c2.7,0.5,4.9-0.3,6.6-2.5c0.7-1,1.2-1.8,1.2-3c0-17.1-0.1-34.1,0.1-51.2
			c0-3.1-0.7-5.4-3.1-7.2c-0.7-0.5-5-1.2-5.7-0.6c-0.2,0.2-0.3,0.5-0.4,0.8c-1.4,3.6-1.4,3.6,1.3,6.3c0.3,0.3,0.6,0.7,1,1
			c1.7,1.4,1.6,3.2,1.3,5.2c-1.8,0-3.4,0-5,0c-0.2-0.7-0.3-1.4-0.6-1.8c-1.8-2.1-3.7-4.3-7-3.5c-0.5,0.1-1.1,0-1.6,0
			c-0.3,0-0.8,0.1-1,0.4c-1.9,1.9-3.7,3.5-3.7,6.8c0.1,3.8,0.7,6.7,3.9,8.9c1.9,1.4,1.9,3.3,1.6,5.4c-1.8,0-3.4,0-4.6,0
			c-1-1.5-1.9-2.6-2.8-3.9c-2.1,2.6-3.8,5-3.3,8.3c0.3,1.9,0.2,3.8,0,5.7c-0.3,2.3,0.9,3.5,2.7,4.8c0-1.5,0-2.7,0-3.9
			c1.9,0,3.6,0,5.4,0c0,4.2,0,8.3,0,12.5c0,0.4,0,1.2,0.1,1.2c2.5,0.6,5,1.2,7.5,1.8c1.2-1.5,3.3-2.3,3.4-4.7c0.4,0,0.8-0.1,1.1-0.1
			C81.3,116.2,82.6,116.2,83.9,116.2z M100.4,78.3c-0.3-3.5-0.3-3.5,1.9-5.8c0.7-0.7,1.5-1.4,2.2-2.3c0.3-0.3,0.6-1,0.5-1.3
			c-0.4-1.4-0.9-2.7-1.3-3.8c-3.2-0.6-5.9-0.3-7.8,2.5c-0.6,0.9-1,1.6-1,2.6c0,17.2,0.1,34.3-0.1,51.5c0,3.1,0.7,5.4,3.1,7.2
			c0.7,0.6,4.8,1.2,5.6,0.7c0.2-0.1,0.3-0.4,0.4-0.6c1.7-3.5,1.6-3.7-1.1-6.4c-0.3-0.3-0.6-0.6-0.9-0.9c-1.9-1.4-1.8-3.4-1.5-5.4
			c1.8,0,3.4,0,5.1,0c0.1,0.6,0.1,1.3,0.4,1.7c1,1.1,1.9,2.4,3.2,3c0.8,0.4,2.1-0.2,3.1-0.5c1.4-0.3,3.2-0.4,3.9-1.3
			c0.7-0.9,0.3-2.7,0.3-4.1c0-3.2,0-6.4,0-9.6c1.9,0,3.6,0,5.5,0c0,1.3,0,2.6,0,3.9c2.6-2.2,2.6-2.2,2.6-5.3c0-1.7-0.2-3.5,0-5.2
			c0.5-3.4-1.3-5.7-3.4-8.3c-0.9,1.3-1.8,2.5-2.7,3.9c-1.3,0-2.9,0-4.7,0c-0.1-1.8-0.6-3.6,1-4.8c3.9-2.7,4.9-6.5,4.3-10.9
			c-0.1-0.4,0-0.8,0-1.3c0-0.4-0.1-0.8-0.3-1c-1.8-2-3.5-4.1-6.8-3.6c-2.9,0.4-5.9,2.4-6.6,5.4C103.8,78.3,102.2,78.3,100.4,78.3z"
			/>
		<path class="st1" d="M84,51.3c-1.8,0-3.5,0-5.2,0c0-1.8,0-3.5,0-5.2c1.7,0,3.4,0,5.2,0C84,47.8,84,49.5,84,51.3z"/>
		<path class="st1" d="M89.6,46.1c1.8,0,3.5,0,5.2,0c0,1.7,0,3.4,0,5.2c-1.7,0-3.4,0-5.2,0C89.6,49.6,89.6,47.9,89.6,46.1z"/>
		<path class="st1" d="M105.6,51.3c-1.7,0-3.4,0-5.1,0c0-1.7,0-3.4,0-5.2c1.7,0,3.4,0,5.1,0C105.6,47.7,105.6,49.4,105.6,51.3z"/>
		<path class="st1" d="M78,99.2c-1.3-1.4-2.5-2.6-3.9-4c1.2-1.1,2.5-2.2,3.6-3.5c0.5-0.6,0.9-1.4,0.9-2.2c0.1-1.8,0-3.7,0-5.6
			c1.8,0,3.5,0,5.3,0c0,2.9,0,5.8,0,8.6c0,0.5-0.5,1.1-0.9,1.5C81.4,95.7,79.8,97.4,78,99.2z"/>
		<path class="st1" d="M76.9,103.7c1.1,1.1,2.3,2.3,3.7,3.7c-2.5,1.3-1.8,3.7-1.9,5.9c-1.8,0-3.5,0-5.2,0
			C73,109.5,72.7,105.8,76.9,103.7z"/>
		<path class="st1" d="M106.3,98.9c-1.7-1.7-3.5-3.5-5.3-5.3c-0.3-0.3-0.6-0.8-0.6-1.2c-0.1-2.8,0-5.6,0-8.5c1.8,0,3.5,0,5.3,0
			c0,1.9-0.1,3.7,0,5.5c0.1,0.8,0.4,1.7,0.9,2.3c1.1,1.3,2.4,2.3,3.6,3.5C108.9,96.5,107.6,97.7,106.3,98.9z"/>
		<path class="st1" d="M111,113.3c-1.7,0-3.4,0-5.2,0c-0.3-2.1,0.8-4.7-2-5.9c1.4-1.3,2.6-2.5,3.8-3.7
			C111.7,105.8,111.3,109.5,111,113.3z"/>
	</g>
</g>
</svg>
