<?xml version="1.0" encoding="utf-8"?>
<!-- Generator: Adobe Illustrator 28.0.0, SVG Export Plug-In . SVG Version: 6.00 Build 0)  -->
<svg version="1.1" id="Layer_1" xmlns="http://www.w3.org/2000/svg" xmlns:xlink="http://www.w3.org/1999/xlink" x="0px" y="0px"
	 viewBox="0 0 163.6 162.1" style="enable-background:new 0 0 163.6 162.1;" xml:space="preserve">
<style type="text/css">
	.st0{fill:#142156;}
	.st1{fill:#EF7406;}
</style>
<g id="_x34_fbVvp.tif">
	<g>
		<path class="st0" d="M40.8,0.8c33.7,0,67.3,0,101,0c0,22.7,0,45.5,0,68.2c3.8,1,7.4,1.9,11.2,2.8c-2.6,7.9-5.2,15.6-7.8,23.3
			c-0.4,1.2-0.2,2,0.5,2.9c3.7,5.2,7.3,10.5,11,15.7c2.4,3.4,4.2,7.1,5.2,11.1c0.3,1.4,0.6,2.7,0.8,4.1c0,2,0,3.9,0,5.9
			c-0.1,0.4-0.2,0.7-0.3,1.1c-2.4,15.6-14.8,26.2-30.7,26.2c-35.9,0-71.9,0-107.8,0c-0.6,0-1.2,0-1.9,0c0-29.5,0-58.9,0-88.4
			c-7.1,0-13.9,0-20.8,0C1,68,1,62.4,1,56.7c0.1-0.2,0.2-0.4,0.3-0.6c1.4-5.6,4.9-9,10.5-10.2c2.6-0.6,5.3-1,8-1.7
			c1.2-0.3,2.2-1,3.3-1.6c0.7-0.4,0.6-1,0-1.6c-0.8-0.8-1.5-1.7-2.1-2.7c-0.5-0.9-1-1.1-2-1.2c-4.9-0.2-8.3-4.6-7.4-9.4
			c0.1-0.6-0.1-1.5-0.5-2.1c-2.9-4.8-3.2-9.8-0.5-14.7c2.7-5,7.1-7.5,12.7-7.6c3.6-0.1,7.2,0,10.7,0c0.4,0,0.8-0.1,1.1-0.2
			C37,2.5,38.9,1.6,40.8,0.8z M136.6,6.1c-27.8,0-55.5,0-83.3,0c4,6.6,3.1,12.6-2.3,17.8c4.5,6.3,1.6,12.6-6,13.3
			c-0.4,0-0.8,0.3-1,0.5c-1,1.3-1.9,2.7-2.9,4.1c0.7,1.4,2.1,2.1,3.6,2.4c2.4,0.5,4.9,1,7.3,1.4c5.5,1,9.4,4,11.1,9.5
			c0.4,1.4,0.5,2.9,0.5,4.3c0.1,4.6,0,9.3,0,14.1c0.7,0,1.2,0,1.8,0c4.8,0,9.7,0,14.5,0c1,0,1.6,0.2,1.8,1.3
			c0.3,1.6,0.8,3.3,1.2,4.9c0.4,1.6,2.3,2.4,3.8,1.5c1.8-1.1,3.6-2.1,5.3-3.1c4.7,4.7,9.3,9.3,14,13.9c-0.9,1.5-1.9,3.2-2.9,4.8
			c-1.3,2.2-0.6,3.8,1.8,4.4c1.2,0.3,2.4,0.7,3.6,0.9c1.5,0.2,2.3,0.9,2,2.5c-0.1,0.7,0,1.3,0,2c2.4-2.9,4.5-5.9,6.7-8.9
			c0.6-0.9,0.8-1.6,0.4-2.6c-1.9-4.9-3.8-9.9-5.6-14.9c-0.8-2-1.5-4-2.2-6c0.2-0.2,0.3-0.3,0.4-0.3c6.4-1.1,12.7-2.1,19.1-3.1
			c0.4-0.1,1.2,0.4,1.5,0.8c1,1.4,1.9,2.8,3,4.4c1.7-3.2,3.1-6.1,3.1-9.7c-0.2-19.5-0.1-38.9-0.1-58.4
			C136.6,7.5,136.6,6.9,136.6,6.1z M131.4,99.6c-2.7,0-5.3,0-8,0c-0.6,0-1.3,0.3-1.6,0.7c-4.3,6.1-8.7,12-12.7,18.3
			c-3.9,6-4.8,12.6-2.9,19.5c3.1,11.7,14.6,21.5,31.1,18.2c17.8-3.6,25.9-23.5,15.8-38.6c-3.9-5.8-8-11.5-12-17.2
			c-0.4-0.5-1.2-0.9-1.8-0.9C136.6,99.6,134,99.6,131.4,99.6z M27.2,73.7c0,27.8,0,55.4,0,83.1c28.6,0,57.1,0,86.1,0
			c-6.5-4.7-10.5-10.6-12.4-18.2c-3,3-5.8,5.9-8.6,8.7c-1.9-1.1-3.6-2.1-5.3-3.1c-1.9-1.1-3.6-0.4-4.1,1.7c-0.4,1.6-0.9,3.1-1.2,4.7
			c-0.2,1-0.7,1.2-1.6,1.2c-5.8,0-11.5,0-17.3,0c-1,0-1.3-0.3-1.5-1.2c-0.3-1.7-0.8-3.4-1.3-5c-0.4-1.5-2.3-2.3-3.7-1.5
			c-1.8,1.1-3.6,2.1-5.3,3.1c-4.7-4.7-9.3-9.3-14-14c0.9-1.5,1.9-3.1,2.8-4.8c1.2-2.1,0.6-3.7-1.7-4.3c-1.6-0.4-3.2-0.7-4.7-1.3
			c-0.4-0.1-1-0.8-1-1.3c-0.1-5.8-0.1-11.7,0-17.6c0-0.4,0.6-1.1,1-1.3c1.6-0.5,3.2-0.9,4.9-1.3c2-0.5,2.8-2.3,1.7-4
			c-1-1.8-2.1-3.5-3-5.1c4.7-4.7,9.3-9.3,14-14c1.7,1,3.6,2.1,5.5,3.2c1,0.6,3.1-0.1,3.4-1.2c0.6-2.2,1.1-4.4,1.7-6.6
			C50,73.7,38.7,73.7,27.2,73.7z M51.8,140.5c1.4-0.8,2.8-1.8,4.4-2.5c0.5-0.2,1.2-0.2,1.7-0.1c1.7,0.6,3.4,1.3,5.1,2.1
			c0.5,0.3,1.1,0.8,1.3,1.4c0.5,1.6,0.9,3.3,1.4,5c3.9,0,7.7,0,11.6,0c0.4-1.4,0.8-2.8,1.1-4.2c0.2-1.3,0.8-2.1,2.2-2.4
			c1.4-0.4,2.8-1.1,4.2-1.8c0.9-0.5,1.5-0.5,2.4,0.1c1.4,0.9,2.9,1.7,4.4,2.6c2.8-2.8,5.5-5.5,8.2-8.3c0.4-0.4,0.5-1,0.5-1.6
			c0.2-5.4,1.8-10.4,4.6-15c0.3-0.4,0.6-1,0.6-1.5c0.1-2.4,0-4.9,0-7.4c-1.4-0.4-2.8-0.8-4.1-1c-1.4-0.2-2.2-0.9-2.6-2.3
			c-0.4-1.4-1.2-2.8-1.7-4.2c-0.2-0.6-0.2-1.5,0.1-2c0.8-1.5,1.7-3,2.5-4.3c-2.8-2.8-5.5-5.5-8.2-8.3c-1.4,0.8-2.8,1.7-4.4,2.5
			c-0.5,0.2-1.2,0.3-1.7,0.1c-1.8-0.6-3.5-1.4-5.2-2.2c-0.5-0.2-1-0.8-1.2-1.3c-0.5-1.7-0.9-3.4-1.4-5c-4,0-7.8,0-11.6,0
			c-0.4,1.7-0.8,3.3-1.3,4.9c-0.2,0.6-0.8,1.2-1.4,1.5c-1.5,0.8-3.2,1.3-4.8,2.1c-0.8,0.4-1.5,0.4-2.2-0.1c-1.4-0.9-2.9-1.7-4-2.4
			c-2.8,2.8-5.5,5.5-8.3,8.3c0.4,0.6,0.7,1.5,1.3,2.2c1.5,1.9,1.9,3.7,0.4,5.8c-0.6,0.8-0.7,2.1-1.2,3c-0.3,0.6-1,1.2-1.6,1.5
			c-1.6,0.6-3.2,0.9-4.8,1.3c0,3.9,0,7.7,0,11.5c1.7,0.4,3.4,0.8,5,1.3c0.5,0.2,1.1,0.7,1.3,1.2c0.8,1.7,1.5,3.4,2.1,5.1
			c0.2,0.6,0.2,1.5-0.1,2c-0.7,1.5-1.7,2.9-2.4,4.2C46.2,135,48.9,137.7,51.8,140.5z M17.4,50.1c-1.9,0.4-3.5,0.7-5.1,1.1
			c-3.3,0.9-5.5,3.1-5.8,6.4C6,61.1,6.3,64.7,6.3,68.3c17.4,0,34.6,0,52,0c0-3.6,0.4-7.1-0.1-10.6c-0.7-5.5-4.8-7-11-7.4
			c-0.8,5.8-1.7,11.5-2.5,17.5c-4.2-3.2-8.3-6.2-12.4-9.2c-4.2,3.1-8.2,6.1-12.4,9.2C19.1,61.9,18.2,56.1,17.4,50.1z M15.3,22.3
			c1.7-0.2,3.2-0.4,4.6-0.7c0.7-0.1,1.5-0.4,2.2-0.8c1.8-1.3,3.9-2.5,6-1.5c4.8,2.3,9.9,2.5,15.1,2.3c3.9-0.2,7.1-3.5,7.3-7.4
			c0.2-4-2.7-7.5-6.7-8.1c-3.9-0.6-7.6,2-8.6,5.8c-0.2,0.6-0.3,1.2-0.4,1.8c-1.7,0-3.4,0-5.2,0c0.4-1.8,0.7-3.4,1-5.1
			c-2.7,0-5.4-0.1-8,0C15.8,9.1,11.9,16.7,15.3,22.3z M134.3,86.6c-2.2-3.2-4.1-6.2-6.1-9.1c-0.3-0.4-1-0.9-1.5-0.9
			c-3.3,0.5-6.6,1.1-10.1,1.7c2,5.2,3.9,10.3,5.8,15.4c0.2,0.4,1,0.7,1.5,0.7c4.8,0.1,9.7,0,14.5,0.1c1,0,1.5-0.2,1.9-1.3
			c1.8-5.5,3.6-11,5.5-16.5c0.1-0.4,0.2-0.8,0.3-1.3c-1.9-0.5-3.7-0.9-5.5-1.3C138.5,78.2,136.4,82.3,134.3,86.6z M40.1,26.8
			c-0.7,0-1.3,0-1.9,0c-3.6,0-7.1-0.7-10.5-2c-1.8-0.7-3.2,0.1-3.2,2.1c-0.1,1.9-0.1,3.8,0,5.7c0.2,4,3.7,7.2,7.8,7.2
			c4.1,0,7.6-3.3,7.8-7.4C40.2,30.6,40.1,28.9,40.1,26.8z M32.3,51.2c1.5-1.9,2.9-3.5,4.2-5.2c0.2-0.3,0.3-0.8,0.1-1.1
			c-0.1-0.2-0.7-0.3-1-0.3c-2.2,0-4.4,0-6.6,0c-0.4,0-0.9,0.1-1,0.3c-0.2,0.3-0.1,0.8,0.1,1.1C29.4,47.7,30.8,49.4,32.3,51.2z
			 M28.6,55c-1.6-2-3.1-3.9-4.7-5.8c-0.2-0.2-0.6-0.3-0.9-0.3c-0.2,0-0.4,0.5-0.4,0.7c0.4,2.9,0.8,5.8,1.3,8.9
			C25.6,57.2,27,56.1,28.6,55z M36,55c1.6,1.2,3.1,2.3,4.7,3.5c0.4-3,0.9-5.8,1.2-8.6c0-0.3-0.2-0.8-0.4-1c-0.1-0.1-0.7,0.1-0.9,0.3
			C39.1,51.1,37.6,53,36,55z M19.2,32c0-1.8,0-3.5,0-5.2c-1.6,0.2-2.5,1-2.5,2.5C16.7,30.9,17.6,31.7,19.2,32z M45.4,31.9
			c1.7-0.3,2.6-1.2,2.5-2.6c-0.1-1.5-1-2.3-2.5-2.5C45.4,28.6,45.4,30.2,45.4,31.9z"/>
		<path class="st0" d="M61,37.1c0-8.7,0-17.2,0-25.8c23.4,0,46.7,0,70.2,0c0,8.6,0,17.1,0,25.8C107.9,37.1,84.5,37.1,61,37.1z
			 M126.1,16.5c-20,0-39.9,0-59.7,0c0,5.2,0,10.3,0,15.4c20,0,39.8,0,59.7,0C126.1,26.8,126.1,21.7,126.1,16.5z"/>
		<path class="st0" d="M68.9,47.5c0-1.7,0-3.3,0-5c20.8,0,41.6,0,62.4,0c0,1.7,0,3.3,0,5C110.5,47.5,89.8,47.5,68.9,47.5z"/>
		<path class="st0" d="M131.3,52.9c0,1.7,0,3.3,0,5c-20.8,0-41.5,0-62.3,0c0-1.6,0-3.3,0-5C89.6,52.9,110.4,52.9,131.3,52.9z"/>
		<path class="st0" d="M131.2,68.4c-17.3,0-34.5,0-51.9,0c0-1.7,0-3.3,0-5.1c17.3,0,34.5,0,51.9,0C131.2,64.9,131.2,66.6,131.2,68.4
			z"/>
		<path class="st0" d="M73.9,68.4c-1.7,0-3.3,0-5,0c0-1.7,0-3.3,0-5c1.6,0,3.2,0,5,0C73.9,64.9,73.9,66.6,73.9,68.4z"/>
		<path class="st1" d="M126,133.6c0.9,2.2,1.4,2.5,3.8,2.5c2.2,0,4.4,0,6.8,0c0-0.9,0-1.7,0-2.5c-0.1-1.6-1-2.6-2.7-2.7
			c-1.7-0.1-3.4,0-5,0c-4.5-0.1-7.8-3.4-7.9-7.8c0-2.5,0-5.1,0-7.7c2.6,0,5.1,0,7.7,0c0-1.8,0-3.4,0-5.2c1.8,0,3.5,0,5.2,0
			c0,1.6,0,3.3,0,5c2.7,0.3,5,1.2,6.4,3.4c0.8,1.3,1.2,2.8,1.8,4.4c-2.1,0-3.7,0-5.5,0c-0.4-2.2-1.9-2.6-4-2.6c-2.1,0.1-4.2,0-6.5,0
			c0,1-0.1,2,0,2.9c0.2,1.5,1.2,2.3,2.7,2.3c1.7,0,3.4,0,5,0c4.4,0.1,7.7,3.4,7.8,7.7c0,2.5,0,5.1,0,7.8c-2.6,0-5.1,0-7.8,0
			c0,1.8,0,3.5,0,5.2c-1.8,0-3.4,0-5.2,0c0-1.7,0-3.3,0-4.9c-5.3-1.2-7.7-3.7-7.8-7.9C122.7,133.6,124.3,133.6,126,133.6z"/>
		<path class="st1" d="M71.5,89.2c12.9,0,23.4,10.6,23.4,23.4c0,12.9-10.6,23.4-23.6,23.4c-12.9,0-23.4-10.6-23.3-23.6
			C48,99.6,58.6,89.2,71.5,89.2z M71.5,94.4c-10,0-18.3,8.1-18.3,18.1c0,10,8.2,18.2,18.2,18.3c10,0,18.3-8.1,18.3-18.2
			C89.7,102.7,81.5,94.5,71.5,94.4z"/>
		<path class="st1" d="M71.3,125.7c-7.2,0-13-6-12.9-13.1c0.1-7.1,6-12.9,13.2-12.9c7.1,0.1,12.9,5.9,12.8,13.1
			C84.4,119.9,78.5,125.7,71.3,125.7z M79.2,112.6c0-4.2-3.5-7.7-7.8-7.7c-4.3,0-7.9,3.5-7.8,7.8c0,4.2,3.5,7.7,7.8,7.7
			C75.7,120.5,79.2,116.9,79.2,112.6z"/>
	</g>
</g>
</svg>
