<?xml version="1.0" encoding="UTF-8"?>
<svg id="Layer_1" data-name="Layer 1" xmlns="http://www.w3.org/2000/svg" viewBox="0 0 131.84 114.2">
  <defs>
    <style>
      .cls-1 {
        fill: #142156;
        stroke-width: 0px;
      }
    </style>
  </defs>
  <path class="cls-1" d="m60.88,114.2H0v-46.88c0-17.26,3.59-30.88,10.78-40.87C17.96,16.47,30.28,7.65,47.72,0l13.16,24.91c-10.73,5.04-18.15,10.06-22.25,15.05-4.11,4.99-6.39,10.89-6.86,17.7h29.11v56.54Zm70.96,0h-60.88v-46.88c0-17.26,3.59-30.88,10.78-40.87,7.18-9.98,19.5-18.8,36.95-26.45l13.15,24.91c-10.73,5.04-18.15,10.06-22.25,15.05-4.11,4.99-6.39,10.89-6.86,17.7h29.11v56.54Z"/>
</svg>