<?xml version="1.0" encoding="utf-8"?>
<!-- Generator: Adobe Illustrator 28.0.0, SVG Export Plug-In . SVG Version: 6.00 Build 0)  -->
<svg version="1.1" id="Layer_1" xmlns="http://www.w3.org/2000/svg" xmlns:xlink="http://www.w3.org/1999/xlink" x="0px" y="0px"
	 viewBox="0 0 163.6 162.1" style="enable-background:new 0 0 163.6 162.1;" xml:space="preserve">
<style type="text/css">
	.st0{fill:#142156;}
	.st1{fill:#EF7406;}
</style>
<g id="o8UKqb.tif">
	<g>
		<g>
			<path class="st0" d="M108.1,161.7c-17.4,0-34.9,0-52.3,0c0-0.6,0.1-1.1,0.1-1.7c0-4.1,0.1-8.2,0-12.3c0-1.3,0.4-1.8,1.7-1.6
				c1.1,0.1,2.3,0,3.6,0c0-2.7,0.1-5.3,0-7.9c-0.1-1-0.4-2.1-0.9-2.9c-1.6-2.3-3.3-4.5-5-6.7c-1.3-1.7-1.9-3.6-1.9-5.7
				c0-0.9,0-1.8,0-2.7c-3.6,0-6.9,0-10.5,0c0,3.5,0,6.8,0,10.2c-1.8,0-3.4,0-5,0c0-5.2,0-10.3,0-15.6c5.2,0,10.3,0,15.3,0
				c0-3.5,0-6.9,0-10.4c-3.5,0-6.8,0-10.4,0c0-7.1,0-13.9,0-20.8c-17.4,1.2-30.3-12.2-31.1-26.9c-0.4-7.3,1.7-13.9,6.3-19.6
				c6.4-7.7,14.7-11.2,24.7-10.6c0-1.9,0-3.6,0-5.2c-12.1,0-24.1,0-36.2,0c0,31.2,0,62.3,0,93.6c5.2,0,10.3,0,15.4,0
				c0,8.7,0,17.3,0,26c-1.7,0-3.3,0-5.1,0c0-6.9,0-13.8,0-20.7c-5.3,0-10.5,0-15.6,0c0-34.7,0-69.3,0-104C1.9,16,2.5,16,3.1,16
				c12.6,0,25.2,0,37.8,0c0.6,0,1.2,0,2,0c0-5.3,0-10.5,0-15.5c26.1,0,52,0,78.1,0c0,5.2,0,10.3,0,15.5c13.9,0,27.7,0,41.5,0
				c0,34.8,0,69.3,0,104.1c-5.2,0-10.3,0-15.6,0c0,7,0,13.8,0,20.7c-1.8,0-3.4,0-5,0c0-8.7,0-17.3,0-26c5.2,0,10.3,0,15.3,0
				c0-31.3,0-62.4,0-93.5c-12.1,0-24.1,0-36.2,0c0,1.8,0,3.5,0,5.2c17.5-1.3,30.4,12.4,31,27.1c0.3,7.3-1.8,13.9-6.4,19.6
				c-6.4,7.7-14.7,11-24.8,10.5c0,7,0,13.9,0,20.9c-3.5,0-6.9,0-10.3,0c0,3.5,0,6.9,0,10.4c5.2,0,10.2,0,15.4,0c0,5.3,0,10.4,0,15.5
				c-1.7,0-3.3,0-5.1,0c0-3.5,0-6.9,0-10.2c-3.5,0-6.9,0-10.4,0c0,0.6,0,1.1,0,1.6c0.2,3-0.7,5.5-2.6,7.8c-1.5,1.8-2.9,3.8-4.3,5.7
				c-0.4,0.5-0.9,1.2-0.9,1.8c-0.1,2.9,0,5.9,0,9c1.2,0,2.3,0.1,3.4,0c1.4-0.1,1.9,0.3,1.9,1.8C108,152.4,108.1,157,108.1,161.7z
				 M115.7,5.6c-22.6,0-45,0-67.4,0c0,31.2,0,62.3,0,93.5c14.7,0,29.4,0,44.1,0c0-2.1,0-4.1,0-6.1c0-0.4-0.4-1-0.7-1.3
				c-1.5-1.5-3-3-4.4-4.5c-1.8-1.8-2.8-4-2.6-6.5c0.3-3.2,1.9-5.6,4.8-6.8c3-1.3,6-1,8.6,1c3.2,2.5,6.3,5,9.5,7.6
				c2.2,1.7,3.1,4.1,3.1,6.8c0,2.8,0,5.6,0,8.4c0,0.5,0.1,1,0.1,1.5c1.8,0,3.4,0,5,0C115.7,67.9,115.7,36.8,115.7,5.6z M58.7,104.5
				c-0.1,0.3-0.1,0.5-0.1,0.7c0,6,0,12.1,0,18.1c0,0.8,0.4,1.6,0.9,2.3c1.6,2.2,3.2,4.4,4.9,6.6c1.3,1.7,2,3.6,2,5.8
				c0,1.3,0,2.6,0,3.9c0,1.3,0,2.7,0,4c10.5,0,20.8,0,31.3,0c0-2.7,0-5.2,0-7.8c0-2.3,0.6-4.3,2-6.1c1.7-2.1,3.3-4.2,4.8-6.4
				c0.5-0.7,0.9-1.7,0.9-2.6c0.1-11.2,0-22.5,0.1-33.7c0-1.3-0.4-2.2-1.4-3c-2.9-2.3-5.8-4.7-8.7-7c-1.6-1.3-3.5-1.2-4.7,0.1
				c-1.1,1.3-1,2.9,0.6,4.5c1.8,1.8,3.7,3.6,5.4,5.5c0.6,0.6,1,1.6,1,2.4c0.1,3.2,0,6.4,0.1,9.6c0,1.1-0.4,1.8-1.1,2.6
				c-1.8,2.1-3.7,4.1-5,6.4c-1.1,2-1.5,4.5-2.2,6.9c-1.4,0-3,0-4.7,0c-0.1-4.8,1.6-9,4.2-12.8c-3.3,0-6.3,0-9.5,0
				c0,4.3,0,8.6,0,12.8c-1.8,0-3.5,0-5.3,0c0-4.3,0-8.6,0-12.8c-1.8,0-3.4,0-5.1,0c0,4.3,0,8.6,0,12.8c-1.8,0-3.5,0-5.3,0
				c0-4.3,0-8.6,0-12.9C61.9,104.5,60.3,104.5,58.7,104.5z M32.3,53.8c-2.8-4-3.3-8-0.8-12.1c2.6-4.1,6.6-5.4,11.3-4.7
				c0-1.8,0-3.5,0-5.1c-6.1-1.3-16.2,1.5-22,10.1c-5.5,8.2-4.7,18.9-0.4,24.9C24.1,59.3,24.1,59.3,32.3,53.8z M121.1,37
				c4.7-0.8,8.6,0.5,11.2,4.5c2.7,4.1,2.2,8.3-0.7,12.4c5.9,2.6,9.9,7,12,13.1c5.2-8.1,4.5-19-1.7-26.8c-4.9-6.2-15.2-10.3-20.7-8.3
				C121.1,33.6,121.1,35.3,121.1,37z M42.8,57.9c-8.7-1.7-17.3,5-17.9,13.7c0,0.5,0.3,1.2,0.7,1.4c2.1,1.3,4.2,2.8,6.5,3.8
				c3.4,1.4,7,1.9,10.7,1.3C42.8,71.3,42.8,64.7,42.8,57.9z M121,57.9c0,3.4,0,6.8,0,10.1c0,3.4,0,6.7,0,10.1
				c6.7,0.6,12.5-1.2,17.6-5.3c0.3-0.2,0.5-0.8,0.5-1.2C138.4,62.9,129.8,56.2,121,57.9z M61.2,156.3c13.9,0,27.7,0,41.5,0
				c0-1.7,0-3.3,0-4.9c-13.9,0-27.7,0-41.5,0C61.2,153.1,61.2,154.6,61.2,156.3z M124,52.3c1.8-0.1,3.4-1.1,4.3-3.1
				c0.9-2,0.6-3.9-0.9-5.6c-1.4-1.6-3.2-2.1-5.3-1.5c-0.8,0.2-1.2,0.6-1.2,1.5c0.1,2,0,4,0,6C121,51.9,121.4,52.3,124,52.3z
				 M42.9,47.3c0-1.2,0.1-2.4,0-3.6c-0.1-0.5-0.6-1.2-1-1.4c-2-0.8-4.3,0-5.6,1.7c-1.4,1.7-1.4,4.2-0.2,6c1.2,1.8,3.4,2.7,5.5,2.2
				c1-0.2,1.6-0.6,1.4-1.8C42.8,49.4,42.9,48.3,42.9,47.3z"/>
			<path class="st0" d="M131.4,161.7c0-15.6,0-31.1,0-46.8c1.8,0,3.4,0,5.1,0c0,0.5,0.1,1,0.1,1.5c0,14.7,0,29.4,0,44.1
				c0,0.4-0.1,0.8-0.1,1.2C134.8,161.7,133.1,161.7,131.4,161.7z"/>
			<path class="st0" d="M27.4,161.7c0-0.5-0.1-1-0.1-1.6c0-14.5,0-29,0-43.4c0-0.6,0-1.1,0-1.8c1.8,0,3.4,0,5.2,0
				c0,15.6,0,31.2,0,46.8C30.8,161.7,29.1,161.7,27.4,161.7z"/>
			<path class="st0" d="M37.8,161.7c0-5.1,0-10.3,0-15.5c1.6,0,3.2,0,5,0c0,5.2,0,10.3,0,15.5C41.2,161.7,39.5,161.7,37.8,161.7z"/>
			<path class="st0" d="M121,161.7c0-5.1,0-10.3,0-15.5c1.7,0,3.3,0,5,0c0,5.2,0,10.4,0,15.5C124.4,161.7,122.7,161.7,121,161.7z"/>
			<path class="st0" d="M17,161.7c0-1.7,0-3.3,0-5.1c1.6,0,3.2,0,5,0c0,1.7,0,3.4,0,5.1C20.4,161.7,18.7,161.7,17,161.7z"/>
			<path class="st0" d="M141.8,161.7c0-1.7,0-3.3,0-5.1c1.7,0,3.3,0,5,0c0,1.7,0,3.4,0,5.1C145.2,161.7,143.5,161.7,141.8,161.7z"/>
			<path class="st0" d="M126.3,104.5c8.7,0,17.3,0,25.9,0c0,1.7,0,3.3,0,5c-8.6,0-17.2,0-25.9,0
				C126.3,107.9,126.3,106.2,126.3,104.5z"/>
			<path class="st0" d="M126.3,99.1c0-1.7,0-3.3,0-5c8.7,0,17.2,0,25.9,0c0,1.7,0,3.3,0,5C143.6,99.1,135,99.1,126.3,99.1z"/>
			<path class="st0" d="M121.1,140.7c0-1.7,0-3.3,0-5c1.7,0,3.3,0,5,0c0,1.7,0,3.3,0,5C124.5,140.7,122.8,140.7,121.1,140.7z"/>
			<path class="st0" d="M141.9,146.1c1.7,0,3.3,0,5,0c0,1.7,0,3.3,0,5c-1.6,0-3.3,0-5,0C141.9,149.5,141.9,147.8,141.9,146.1z"/>
			<path class="st0" d="M37.7,104.5c0,1.7,0,3.3,0,5c-8.6,0-17.2,0-25.8,0c0-1.6,0-3.3,0-5C20.3,104.5,28.9,104.5,37.7,104.5z"/>
			<path class="st0" d="M37.6,99.1c-8.6,0-17.2,0-25.8,0c0-1.7,0-3.3,0-5.1c8.6,0,17.2,0,25.8,0C37.6,95.8,37.6,97.4,37.6,99.1z"/>
			<path class="st0" d="M42.8,135.7c0,1.7,0,3.4,0,5c-1.7,0-3.3,0-5,0c0-1.7,0-3.3,0-5C39.5,135.7,41.1,135.7,42.8,135.7z"/>
			<path class="st0" d="M22,151.2c-1.7,0-3.3,0-5,0c0-1.7,0-3.3,0-5c1.7,0,3.3,0,5,0C22,147.8,22,149.4,22,151.2z"/>
			<g>
				<g>
					<path class="st1" d="M81.7,68c-16-0.3-28.7-13.3-28.4-28.9c0.3-16,13.4-28.7,29.2-28.3c15.7,0.4,28.4,13.4,28.1,28.9
						C110.3,55.5,97.2,68.3,81.7,68z M101.9,51.4c6.2-10.2,3.7-23.5-5.6-30.6c-9.5-7.3-23-6.2-31.1,2.2c-8.6,9-7.7,21.9-3,28.2
						c2.1-6.1,6.1-10.3,11.9-12.9c-3.4-6-3-11,1.2-14.6c3.9-3.3,9.4-3.4,13.3-0.3c4.5,3.6,5,8.5,1.5,14.9
						C95.8,40.9,99.7,45.3,101.9,51.4z M82,62.8c5.3-0.1,10.1-1.8,14.4-5c0.9-0.7,1.1-1.4,0.9-2.4c-1-7-6.6-12.3-13.6-13.2
						c-8.4-1-15.9,5-17.2,13.1c-0.2,1.1,0,1.8,1,2.5C71.8,61,76.6,62.7,82,62.8z M82,26.4c-2.9,0-5.2,2.3-5.2,5.2
						c0,2.9,2.4,5.2,5.2,5.2c2.8,0,5.1-2.3,5.1-5.1C87.2,28.7,84.9,26.4,82,26.4z"/>
				</g>
			</g>
			<path class="st0" d="M53.4,93.9c0-1.7,0-3.3,0-4.9c8.7,0,17.2,0,25.9,0c0,1.6,0,3.2,0,4.9C70.6,93.9,62.1,93.9,53.4,93.9z"/>
			<path class="st0" d="M79.3,83.5c-0.5,0-1,0.1-1.4,0.1c-4.7,0-9.3,0-14,0c0-1.8,0-3.4,0-5.1c5.2,0,10.3,0,15.5,0
				C79.3,80.2,79.3,81.8,79.3,83.5z"/>
			<path class="st0" d="M53.4,83.5c0-1.7,0-3.2,0-4.9c1.6,0,3.3,0,5.1,0c0,1.6,0,3.2,0,4.9C56.8,83.5,55.2,83.5,53.4,83.5z"/>
		</g>
	</g>
</g>
</svg>
